<svg width="64" height="64" viewBox="0 0 64 64" fill="none" xmlns="http://www.w3.org/2000/svg">
<circle cx="32" cy="32" r="32" fill="#5496F9"/>
<path d="M27.9336 36.3213C27.5 36.9424 26.8936 37.4082 26.1143 37.7188C25.3408 38.0234 24.4385 38.1758 23.4072 38.1758C22.3643 38.1758 21.4385 37.9326 20.6299 37.4463C19.8213 36.9541 19.1943 36.2568 18.749 35.3545C18.3096 34.4521 18.084 33.4062 18.0723 32.2168V31.1006C18.0723 29.1729 18.5205 27.6787 19.417 26.6182C20.3193 25.5576 21.585 25.0273 23.2139 25.0273C24.5498 25.0273 25.625 25.3701 26.4395 26.0557C27.2539 26.7354 27.752 27.7021 27.9336 28.9561H26.2461C25.9297 27.2627 24.9219 26.416 23.2227 26.416C22.0918 26.416 21.2334 26.8145 20.6475 27.6113C20.0674 28.4023 19.7744 29.5508 19.7686 31.0566V32.1025C19.7686 33.5381 20.0967 34.6807 20.7529 35.5303C21.4092 36.374 22.2969 36.7959 23.416 36.7959C24.0488 36.7959 24.6025 36.7256 25.0771 36.585C25.5518 36.4443 25.9443 36.207 26.2549 35.873V32.999H23.293V31.6279H27.9336V36.3213ZM33.5146 33.9658L33.7607 35.6533L34.1211 34.1328L36.6523 25.2031H38.0762L40.5459 34.1328L40.8975 35.6797L41.1699 33.957L43.1562 25.2031H44.8525L41.75 38H40.2119L37.5752 28.6748L37.373 27.6992L37.1709 28.6748L34.4375 38H32.8994L29.8057 25.2031H31.4932L33.5146 33.9658Z" fill="white"/>
</svg>
